<svg xmlns="http://www.w3.org/2000/svg" viewBox="0 0 60 40">
  <!-- Red stripes -->
  <rect width="60" height="40" fill="#B22234"/>
  <rect y="3.08" width="60" height="3.08" fill="#fff"/>
  <rect y="9.23" width="60" height="3.08" fill="#fff"/>
  <rect y="15.38" width="60" height="3.08" fill="#fff"/>
  <rect y="21.54" width="60" height="3.08" fill="#fff"/>
  <rect y="27.69" width="60" height="3.08" fill="#fff"/>
  <rect y="33.85" width="60" height="3.08" fill="#fff"/>

  <!-- Blue canton -->
  <rect width="24" height="21.54" fill="#3C3B6E"/>

  <!-- Stars (simplified 5x4 pattern) -->
  <g fill="#fff">
    <circle cx="4" cy="2.7" r="1.2"/>
    <circle cx="8" cy="2.7" r="1.2"/>
    <circle cx="12" cy="2.7" r="1.2"/>
    <circle cx="16" cy="2.7" r="1.2"/>
    <circle cx="20" cy="2.7" r="1.2"/>

    <circle cx="6" cy="5.4" r="1.2"/>
    <circle cx="10" cy="5.4" r="1.2"/>
    <circle cx="14" cy="5.4" r="1.2"/>
    <circle cx="18" cy="5.4" r="1.2"/>

    <circle cx="4" cy="8.1" r="1.2"/>
    <circle cx="8" cy="8.1" r="1.2"/>
    <circle cx="12" cy="8.1" r="1.2"/>
    <circle cx="16" cy="8.1" r="1.2"/>
    <circle cx="20" cy="8.1" r="1.2"/>

    <circle cx="6" cy="10.8" r="1.2"/>
    <circle cx="10" cy="10.8" r="1.2"/>
    <circle cx="14" cy="10.8" r="1.2"/>
    <circle cx="18" cy="10.8" r="1.2"/>

    <circle cx="4" cy="13.5" r="1.2"/>
    <circle cx="8" cy="13.5" r="1.2"/>
    <circle cx="12" cy="13.5" r="1.2"/>
    <circle cx="16" cy="13.5" r="1.2"/>
    <circle cx="20" cy="13.5" r="1.2"/>

    <circle cx="6" cy="16.2" r="1.2"/>
    <circle cx="10" cy="16.2" r="1.2"/>
    <circle cx="14" cy="16.2" r="1.2"/>
    <circle cx="18" cy="16.2" r="1.2"/>

    <circle cx="4" cy="18.9" r="1.2"/>
    <circle cx="8" cy="18.9" r="1.2"/>
    <circle cx="12" cy="18.9" r="1.2"/>
    <circle cx="16" cy="18.9" r="1.2"/>
    <circle cx="20" cy="18.9" r="1.2"/>
  </g>
</svg>
